<svg xmlns="http://www.w3.org/2000/svg" viewBox="0 0 64 64" fill="none">
  <defs>
    <linearGradient id="g" x1="0" y1="0" x2="64" y2="64" gradientUnits="userSpaceOnUse">
      <stop stop-color="#5b9cff"/>
      <stop offset="1" stop-color="#7aefc6"/>
    </linearGradient>
  </defs>
  <rect rx="14" width="64" height="64" fill="url(#g)"/>
  <path d="M18 24c0-3.314 2.686-6 6-6h4a6 6 0 0 1 6 6v1h4a8 8 0 1 1 0 16H36v-4h6a4 4 0 1 0 0-8h-8v-5a2 2 0 0 0-2-2h-4a2 2 0 0 0-2 2v17h-4V24z" fill="#0b1220" opacity=".9"/>
  <circle cx="24" cy="46" r="4" fill="#0b1220"/>
</svg>
